<svg width="64" height="64" viewBox="0 0 64 64" fill="none" xmlns="http://www.w3.org/2000/svg">
<circle cx="32" cy="32" r="32" fill="white" fill-opacity="0.2"/>
<path d="M44 33C44.5523 33 45 32.5523 45 32C45 31.4477 44.5523 31 44 31V33ZM20.2929 31.2929C19.9024 31.6834 19.9024 32.3166 20.2929 32.7071L26.6569 39.0711C27.0474 39.4616 27.6805 39.4616 28.0711 39.0711C28.4616 38.6805 28.4616 38.0474 28.0711 37.6569L22.4142 32L28.0711 26.3431C28.4616 25.9526 28.4616 25.3195 28.0711 24.9289C27.6805 24.5384 27.0474 24.5384 26.6569 24.9289L20.2929 31.2929ZM44 31H42.0833V33H44V31ZM38.25 31H34.4167V33H38.25V31ZM30.5833 31L26.75 31V33H30.5833V31ZM22.9167 31H21V33H22.9167V31ZM44 33C44.5523 33 45 32.5523 45 32C45 31.4477 44.5523 31 44 31V33ZM20.2929 31.2929C19.9024 31.6834 19.9024 32.3166 20.2929 32.7071L26.6569 39.0711C27.0474 39.4616 27.6805 39.4616 28.0711 39.0711C28.4616 38.6805 28.4616 38.0474 28.0711 37.6569L22.4142 32L28.0711 26.3431C28.4616 25.9526 28.4616 25.3195 28.0711 24.9289C27.6805 24.5384 27.0474 24.5384 26.6569 24.9289L20.2929 31.2929ZM44 31H42.0833V33H44V31ZM38.25 31H34.4167V33H38.25V31ZM30.5833 31L26.75 31V33H30.5833V31ZM22.9167 31H21V33H22.9167V31Z" fill="white"/>
</svg>
