<svg width="177" height="48" viewBox="0 0 177 48" fill="none" xmlns="http://www.w3.org/2000/svg">
<path d="M21.0795 0H27V33.8093C26.9675 42.8992 21.6976 48 13.4675 48C5.66024 48 0 43.5204 0 36.1635H5.79036C5.82289 40.1853 9.04337 42.7684 13.4675 42.7684C18.3145 42.7684 21.0795 39.6621 21.0795 33.8093V0Z" fill="white"/>
<path d="M27 0H33.8778L47.1661 22.2762H47.7671L61.0554 0H68L50.5049 28.3094V48H44.4283V28.3094L27 0Z" fill="white"/>
<path fill-rule="evenodd" clip-rule="evenodd" d="M73.9302 0.106088V0H73.8566L73.9302 0.106088ZM73.9302 47.705V0.106088L99.6858 37.2283H100.147V0H106.011V47.705H100.345L74.5155 10.5425H74.0542V47.705H73.9302ZM68.1241 47.705V0H68V47.705H68.1241Z" fill="white"/>
<path fill-rule="evenodd" clip-rule="evenodd" d="M111.941 47.705V0H121.575C135.511 0 143.714 8.92821 143.714 23.7866C143.714 38.6779 135.511 47.705 120.982 47.705H111.941ZM106.156 47.705V0H106.011V47.705H106.156ZM120.586 42.4337H112.087V5.27127H121.179C132.282 5.27127 137.916 12.2557 137.916 23.7866C137.916 35.3504 132.282 42.4337 120.586 42.4337Z" fill="white"/>
<path fill-rule="evenodd" clip-rule="evenodd" d="M143.714 0V47.705H143.874V0H143.714ZM149.497 0V47.705H149.644V30.3757H159.989C171.092 30.3757 176.198 23.6219 176.198 15.1549C176.198 6.65497 171.092 0 159.923 0H149.497ZM159.726 25.1044H149.644V5.27127H159.66C167.336 5.27127 170.301 9.45533 170.334 15.1549C170.301 20.8215 167.336 25.1044 159.726 25.1044Z" fill="white"/>
</svg>
