<svg width="24" height="24" viewBox="0 0 24 24" fill="none" xmlns="http://www.w3.org/2000/svg">
<path fill-rule="evenodd" clip-rule="evenodd" d="M21.9286 3.5H22.5V4.1L21.9286 3.5ZM21.6075 3.5H2.35965L2.74335 3.83511L11.6125 11.5809C11.8536 11.7467 12.1546 11.7447 12.3939 11.5766L12.3947 11.5759C12.7738 11.2607 18.2136 6.73224 21.2328 3.8569L21.6075 3.5ZM2.04025 3.5H1.5V4.1186L2.04025 3.5ZM1.5 4.74075V19.7H22.5V4.72143L22.2672 4.9431C19.2044 7.86011 13.723 12.4223 13.3535 12.7294C13.3285 12.7502 13.2997 12.773 13.2649 12.7978C12.4898 13.3479 11.4673 13.3389 10.7007 12.7728C10.6842 12.7607 10.6682 12.7478 10.6528 12.7344L1.75665 4.96489L1.5 4.74075ZM0 2H1.5H22.5H24V3.5V19.7V21.2H22.5H1.5H0V19.7V3.5V2Z" fill="white"/>
</svg>
