<svg width="24" height="24" viewBox="0 0 24 24" fill="none" xmlns="http://www.w3.org/2000/svg">
<g clip-path="url(#clip0_574_46912)">
<path d="M4.45901 4.20824C5.20501 4.81424 5.48501 4.76824 6.88701 4.67424L20.102 3.88124C20.382 3.88124 20.149 3.60124 20.056 3.55524L17.86 1.96824C17.44 1.64224 16.879 1.26824 15.805 1.36124L3.01001 2.29524C2.54401 2.34124 2.45001 2.57524 2.63601 2.76124L4.45901 4.20824ZM5.25201 7.28824V21.1922C5.25201 21.9392 5.62501 22.2192 6.46601 22.1722L20.989 21.3322C21.83 21.2862 21.924 20.7722 21.924 20.1652V6.35424C21.924 5.74824 21.691 5.42124 21.176 5.46724L5.99901 6.35424C5.43901 6.40124 5.25201 6.68124 5.25201 7.28724V7.28824ZM19.589 8.03324C19.682 8.45324 19.589 8.87324 19.169 8.92124L18.469 9.06124V19.3252C17.861 19.6522 17.301 19.8392 16.834 19.8392C16.086 19.8392 15.899 19.6052 15.339 18.9062L10.762 11.7202V18.6722L12.21 19.0002C12.21 19.0002 12.21 19.8402 11.042 19.8402L7.82001 20.0262C7.72701 19.8402 7.82001 19.3732 8.14701 19.2802L8.98701 19.0472V9.85424L7.82201 9.76024C7.72801 9.34024 7.96201 8.73424 8.61501 8.68724L12.071 8.45424L16.835 15.7332V9.29324L15.62 9.15424C15.527 8.64024 15.9 8.26724 16.367 8.22124L19.589 8.03324ZM1.93601 1.03524L15.246 0.0552402C16.88 -0.0847598 17.301 0.00824024 18.328 0.75524L22.577 3.74124C23.277 4.25424 23.511 4.39424 23.511 4.95424V21.3322C23.511 22.3582 23.138 22.9662 21.831 23.0582L6.37301 23.9922C5.39301 24.0392 4.92501 23.8992 4.41101 23.2452L1.28201 19.1852C0.722014 18.4382 0.489014 17.8792 0.489014 17.2252V2.66724C0.489014 1.82824 0.863014 1.12724 1.93601 1.03524Z" fill="white"/>
</g>
<defs>
<clipPath id="clip0_574_46912">
<rect width="24" height="24" fill="white"/>
</clipPath>
</defs>
</svg>
