<svg width="48" height="48" viewBox="0 0 48 48" fill="none" xmlns="http://www.w3.org/2000/svg">
<rect x="0.5" y="0.5" width="47" height="47" rx="23.5" fill="#333333" stroke="#C8FE26"/>
<path fill-rule="evenodd" clip-rule="evenodd" d="M11.5547 34.2867H15.4493C21.7082 34.2867 25.2421 30.3979 25.2421 23.9829C25.2421 17.582 21.7082 13.7358 15.7048 13.7358H9.06263V13.7359H9V34.2867H11.5547V34.2867ZM11.5547 34.2867V13.7359H9.06263V34.2867H11.5547ZM15.279 32.0159H11.6173V16.0066H15.5344C20.3173 16.0066 22.7443 19.0155 22.7443 23.9829C22.7443 28.9645 20.3173 32.0159 15.279 32.0159Z" fill="#C8FE26"/>
<path fill-rule="evenodd" clip-rule="evenodd" d="M27.7329 13.7359V13.7358H25.3107V13.7359H25.2417V34.2867H27.7964V26.8214H32.2528C37.0357 26.8214 39.2356 23.912 39.2356 20.2645C39.2356 16.6028 37.0357 13.7359 32.2244 13.7359H27.7329ZM27.7329 13.7359H25.3107V34.2867H27.7329V13.7359ZM32.1393 24.5506H27.7964V16.0067H32.1109C35.4178 16.0067 36.6951 17.8092 36.7093 20.2645C36.6951 22.7056 35.4178 24.5506 32.1393 24.5506Z" fill="#C8FE26"/>
</svg>
