<svg width="24" height="24" viewBox="0 0 24 24" fill="none" xmlns="http://www.w3.org/2000/svg">
<g clip-path="url(#clip0_575_46958)">
<path fill-rule="evenodd" clip-rule="evenodd" d="M12.0001 0.5C9.15137 0.501478 6.39601 1.51046 4.22675 3.34652C2.05749 5.18259 0.615781 7.72601 0.159422 10.522C-0.296936 13.318 0.261805 16.1842 1.73575 18.6082C3.20969 21.0321 5.50272 22.8558 8.20481 23.753C8.80093 23.8636 9.02547 23.4941 9.02547 23.18C9.02547 22.8658 9.01355 21.955 9.00957 20.9592C5.67127 21.6804 4.96586 19.5505 4.96586 19.5505C4.4214 18.1674 3.63451 17.8039 3.63451 17.8039C2.54559 17.065 3.71599 17.0788 3.71599 17.0788C4.92215 17.1637 5.55603 18.3097 5.55603 18.3097C6.62508 20.1333 8.36377 19.6058 9.04733 19.2976C9.15463 18.5251 9.46661 17.9995 9.81037 17.7012C7.14371 17.4008 4.34192 16.3774 4.34192 11.8054C4.32539 10.6197 4.7679 9.47305 5.57789 8.60268C5.45469 8.30236 5.04336 7.08923 5.69512 5.44143C5.69512 5.44143 6.70258 5.12135 8.99568 6.66444C10.9625 6.12962 13.0377 6.12962 15.0046 6.66444C17.2957 5.12135 18.3012 5.44143 18.3012 5.44143C18.9549 7.08528 18.5436 8.29841 18.4204 8.60268C19.233 9.47319 19.6764 10.6218 19.6584 11.8094C19.6584 16.3912 16.8506 17.4008 14.18 17.6952C14.6092 18.0667 14.9927 18.7918 14.9927 19.9061C14.9927 21.5026 14.9788 22.7868 14.9788 23.18C14.9788 23.4981 15.1954 23.8695 15.8034 23.753C18.5058 22.8557 20.7991 21.0317 22.273 18.6073C23.7469 16.183 24.3054 13.3163 23.8485 10.5201C23.3916 7.7238 21.9492 5.18035 19.7792 3.34461C17.6092 1.50886 14.8532 0.500541 12.0041 0.5H12.0001Z" fill="#C1C1C1"/>
</g>
<defs>
<clipPath id="clip0_575_46958">
<rect width="24" height="24" fill="white"/>
</clipPath>
</defs>
</svg>
