<svg width="48" height="48" viewBox="0 0 48 48" fill="none" xmlns="http://www.w3.org/2000/svg">
<rect x="0.5" y="0.5" width="47" height="47" rx="23.5" fill="#333333" stroke="#476B74"/>
<path fill-rule="evenodd" clip-rule="evenodd" d="M11.5547 34.2866H15.4493C21.7082 34.2866 25.2421 30.3979 25.2421 23.9828C25.2421 17.582 21.7082 13.7358 15.7047 13.7358H9.06263V13.7358H9V34.2867H11.5547V34.2866ZM11.5547 34.2866V13.7358H9.06263V34.2866H11.5547ZM15.279 32.0158H11.6173V16.0066H15.5344C20.3173 16.0066 22.7443 19.0154 22.7443 23.9828C22.7443 28.9644 20.3173 32.0158 15.279 32.0158Z" fill="#C8FE26"/>
<path fill-rule="evenodd" clip-rule="evenodd" d="M11.5547 34.2866H15.4493C21.7082 34.2866 25.2421 30.3979 25.2421 23.9828C25.2421 17.582 21.7082 13.7358 15.7047 13.7358H9.06263V13.7358H9V34.2867H11.5547V34.2866ZM11.5547 34.2866V13.7358H9.06263V34.2866H11.5547ZM15.279 32.0158H11.6173V16.0066H15.5344C20.3173 16.0066 22.7443 19.0154 22.7443 23.9828C22.7443 28.9644 20.3173 32.0158 15.279 32.0158Z" fill="#476B74"/>
<path fill-rule="evenodd" clip-rule="evenodd" d="M27.7329 13.7358V13.7358H25.3107V13.7358H25.2417V34.2867H27.7964V26.8214H32.2528C37.0357 26.8214 39.2356 23.9119 39.2356 20.2644C39.2356 16.6027 37.0357 13.7358 32.2244 13.7358H27.7329ZM27.7329 13.7358H25.3107V34.2866H27.7329V13.7358ZM32.1393 24.5506H27.7964V16.0066H32.1109C35.4178 16.0066 36.6951 17.8091 36.7093 20.2644C36.6951 22.7055 35.4178 24.5506 32.1393 24.5506Z" fill="#C8FE26"/>
<path fill-rule="evenodd" clip-rule="evenodd" d="M27.7329 13.7358V13.7358H25.3107V13.7358H25.2417V34.2867H27.7964V26.8214H32.2528C37.0357 26.8214 39.2356 23.9119 39.2356 20.2644C39.2356 16.6027 37.0357 13.7358 32.2244 13.7358H27.7329ZM27.7329 13.7358H25.3107V34.2866H27.7329V13.7358ZM32.1393 24.5506H27.7964V16.0066H32.1109C35.4178 16.0066 36.6951 17.8091 36.7093 20.2644C36.6951 22.7055 35.4178 24.5506 32.1393 24.5506Z" fill="#476B74"/>
</svg>
